<svg xmlns="http://www.w3.org/2000/svg" viewBox="0 0 512 512" role="img" aria-label="QuickNotes">
  <defs>
    <linearGradient id="tile" x1="0%" y1="0%" x2="100%" y2="100%">
      <stop offset="0%" stop-color="#12604a"/>
      <stop offset="55%" stop-color="#0a4634"/>
      <stop offset="100%" stop-color="#042a21"/>
    </linearGradient>
  </defs>
  <rect width="512" height="512" rx="118" fill="url(#tile)"/>

  <!-- Spiral binding -->
  <g fill="#1f8a6b">
    <rect x="156" y="72" width="32" height="76" rx="16"/>
    <rect x="240" y="72" width="32" height="76" rx="16"/>
    <rect x="324" y="72" width="32" height="76" rx="16"/>
  </g>

  <!-- Page, with the bottom-right corner folded back -->
  <path fill="#ffffff" d="M128 112h256a32 32 0 0 1 32 32v180L324 416H128a32 32 0 0 1-32-32V144a32 32 0 0 1 32-32Z"/>
  <path fill="#dbe9e3" d="M416 324 324 416v-64a28 28 0 0 1 28-28Z"/>

  <!-- Ruled lines -->
  <g stroke="#8fb6a9" stroke-width="20" stroke-linecap="round">
    <line x1="160" y1="200" x2="352" y2="200"/>
    <line x1="160" y1="264" x2="352" y2="264"/>
    <line x1="160" y1="328" x2="272" y2="328"/>
  </g>
</svg>
