<svg xmlns="http://www.w3.org/2000/svg" width="64" height="64" viewBox="0 0 64 64" role="img" aria-label="QuickNotes">
  <defs>
    <linearGradient id="tile" x1="0%" y1="0%" x2="100%" y2="100%">
      <stop offset="0%" stop-color="#12604a"/>
      <stop offset="55%" stop-color="#0a4634"/>
      <stop offset="100%" stop-color="#042a21"/>
    </linearGradient>
  </defs>
  <rect width="64" height="64" rx="15" fill="url(#tile)"/>
  <g fill="#1f8a6b">
    <rect x="19.5" y="9" width="4" height="9.5" rx="2"/>
    <rect x="30" y="9" width="4" height="9.5" rx="2"/>
    <rect x="40.5" y="9" width="4" height="9.5" rx="2"/>
  </g>
  <path fill="#ffffff" d="M16 14h32a4 4 0 0 1 4 4v22.5L40.5 52H16a4 4 0 0 1-4-4V18a4 4 0 0 1 4-4Z"/>
  <path fill="#dbe9e3" d="M52 40.5 40.5 52V44a3.5 3.5 0 0 1 3.5-3.5Z"/>
  <g stroke="#8fb6a9" stroke-width="3" stroke-linecap="round">
    <line x1="20" y1="25" x2="44" y2="25"/>
    <line x1="20" y1="33" x2="44" y2="33"/>
    <line x1="20" y1="41" x2="34" y2="41"/>
  </g>
</svg>
